<svg xmlns="http://www.w3.org/2000/svg" width="17" height="17" viewBox="0 0 17 17">
  <defs>
    <style>
      .cls-1 {
        fill-rule: evenodd;
      }
    </style>
  </defs>
  <path id="Shape" class="cls-1" d="M15.381,8.9a7.6,7.6,0,0,0-4.407,1.979A8.093,8.093,0,0,0,8.9,15.38S8.5,17,8.5,17c-0.024,0-.4-1.616-0.4-1.616a8.092,8.092,0,0,0-2.069-4.5A7.6,7.6,0,0,0,1.619,8.9S-0.019,8.5,0,8.5s1.619-.4,1.62-0.4A7.6,7.6,0,0,0,6.026,6.116,8.093,8.093,0,0,0,8.1,1.618S8.5,0.007,8.5,0s0.4,1.615.4,1.615a8.094,8.094,0,0,0,2.069,4.5A7.6,7.6,0,0,0,15.381,8.1S17,8.487,17,8.5,15.382,8.9,15.381,8.9Z"/>
</svg>
